<svg width="32" height="32" viewBox="0 0 32 32" fill="none" xmlns="http://www.w3.org/2000/svg">
<rect width="32" height="32" rx="8" fill="#FEFDFA"/>
<path d="M17.3359 5.71973C19.7253 5.71973 21.5816 6.28535 22.9043 7.41602C24.2482 8.52535 24.9199 10.2005 24.9199 12.4404C24.9198 14.6802 24.163 16.4299 22.6484 17.6885C21.1338 18.9258 19.1278 19.5439 16.6318 19.5439H13.9121V24.1836L16.9844 24.2803V27H8.02441V24.4082L9.08008 24.3115C9.69865 24.2475 10.0078 23.9493 10.0078 23.416V8.53613L8.18359 8.44043V5.71973H17.3359ZM13.9121 16.4404H16.2158C19.3305 16.4404 20.8877 15.1705 20.8877 12.6318C20.8877 11.0959 20.4825 10.0824 19.6719 9.5918C18.8826 9.0799 17.6133 8.82424 15.8643 8.82422H13.9121V16.4404Z" fill="#3C3A38"/>
</svg>
