<svg width="24" height="24" viewBox="0 0 24 24" fill="none" xmlns="http://www.w3.org/2000/svg">
  <path d="M9.35796 14.6821L16.747 9.19677C17.1092 8.92786 17.627 9.03275 17.7996 9.45047C18.7081 11.6534 18.3022 14.3007 16.4947 16.1183C14.6873 17.9359 12.1725 18.3345 9.87385 17.4267L7.36279 18.5959C10.9644 21.0715 15.3379 20.4593 18.0708 17.709C20.2386 15.5289 20.91 12.5574 20.2822 9.87771L20.2879 9.8834C19.3775 5.94679 20.5117 4.37329 22.835 1.15571C22.89 1.07942 22.945 1.00313 23 0.924927L19.9427 3.99946V3.98992L9.35609 14.684" fill="black"/>
  <path d="M7.83299 16.0153C5.24794 13.532 5.69363 9.68885 7.89934 7.47264C9.53037 5.83236 12.2027 5.16291 14.5354 6.14706L17.0408 4.98362C16.5895 4.65557 16.011 4.30273 15.3472 4.05478C12.3468 2.81314 8.75469 3.4311 6.31571 5.88195C3.96965 8.24124 3.23188 11.8689 4.49879 14.9644C5.44518 17.2779 3.89378 18.9143 2.33101 20.5661C1.77721 21.1516 1.22151 21.7372 0.773926 22.357L7.83106 16.0172" fill="black"/>
</svg>
