<svg width="24" height="24" viewBox="0 0 24 24" fill="none" xmlns="http://www.w3.org/2000/svg">
  <path fill-rule="evenodd" clip-rule="evenodd" d="M5.08512 1L11.3706 6.77187V6.77054V1.01332H12.5942V6.7977L18.9078 1V7.58078H21.5V17.0729H18.9158V22.9328L12.5942 17.3973V22.9964H11.3706V17.4886L5.09224 23V17.0729H2.5V7.58078H5.08512V1ZM10.4482 8.78535H3.72354V15.8684H5.09071V13.6341L10.4482 8.78535ZM6.31572 14.1686V20.3121L11.3706 15.8747V9.5926L6.31572 14.1686ZM12.6294 15.816V9.58668L17.6858 14.163V17.0729H17.6922V20.2494L12.6294 15.816ZM18.9158 15.8684H20.2765V8.78535H13.6019L18.9158 13.5839V15.8684ZM17.6843 7.58078V3.77077L13.5352 7.58078H17.6843ZM10.4577 7.58078H6.30866V3.77077L10.4577 7.58078Z" fill="black"/>
</svg>
